#!OML:ASF E:/inclinewalkrobotboard/Project1/Captureday1/Session1/subject1.ASF
:FULLY-SPECIFIED
:DEGREES
226
root 0 0 0 -7.235659363646455 -4.141867382656111 -2.989365962113977
lowerback 13.236144451061815 1.2675915161553417 2.854545872919158
upperback 2.1918680216306914 2.160590491541976 1.3165333822473155
thorax -5.031556253399364 1.0990885439469005 -0.6363402145385901
lowerneck -17.448346214782983 -3.6230687862632225 -1.9283075124069222
upperneck 18.813451282587547 -4.617822805892691 0.7553479645591943
head 8.770961078511526 -2.2574183021978547 -0.011094131176639488
rclavicle 3.528888361034268E-15 8.014824033115962E-16
rhumerus -47.818677165869154 -17.98823829701404 -73.27202903127909
rradius 25.538315211759155
rwrist -2.435092180334678
rhand -22.37365681785733 28.58148535326518
rfingers 7.125020000000063
rthumb 4.05035279561039 -1.736397536108658
lclavicle -3.684957693185459E-15 -6.185954310879809E-15
lhumerus -40.76219574365763 2.268799906427887 84.94897825972117
lradius 26.55963805187858
lwrist 3.187479614105312
lhand -32.66125413377004 21.058531188666
lfingers 7.125020000000036
lthumb -5.8039867187831256 51.927822412338365
rfemur -21.856012610904855 14.775470667234174 31.986418236281054
rtibia 32.64635589704133
rfoot -7.598142988275416 -12.603249806832398
rtoes -5.150338738395458
lfemur -5.127275638016513 -6.742507353404852 -20.68389930066195
ltibia 18.103607027249275
lfoot -10.428905282929334 0.2135083047457762
ltoes -5.396755619515572
227
root 0 0 0 -6.9849778002554 -3.7534957669844395 -2.5718712929875887
lowerback 13.103811667047268 1.1325003955023982 2.413636201023431
upperback 2.1372349416753504 1.9288789236528356 1.2931986473463768
thorax -5.019474918624352 0.9886146431744386 -0.3745435300289306
lowerneck -17.469523045961342 -3.57620300407667 -1.9608993412087903
upperneck 18.748224778849195 -4.5310308255384575 0.7018890321868403
head 8.745808381853635 -2.222509062464122 -0.009603655188620275
rclavicle 3.5250514937181583E-15 8.709007651030797E-16
rhumerus -47.95866038002269 -18.038537661309103 -73.32582060413289
rradius 25.427557859137107
rwrist -2.4175848488778513
rhand -22.318111443429366 28.54023327697191
rfingers 7.125020000000062
rthumb 4.102003656922953 -1.7711590540138893
lclavicle -3.548081933977157E-15 -6.349419869427473E-15
lhumerus -40.49507254899629 2.059170675330779 84.91922209760135
lradius 26.66227161030097
lwrist 3.4265773492451572
lhand -32.64775043981617 21.189589569449062
lfingers 7.1250200000000365
lthumb -5.790629611465931 52.05621739607355
rfemur -22.59621847990239 15.989519762911613 33.079755901611364
rtibia 30.807668146619775
rfoot -8.475667854860475 -12.622891172615525
rtoes -5.245935833924232
lfemur -4.699153132130881 -6.716912667408854 -20.860675597266148
ltibia 18.26826428483727
lfoot -10.439298311655927 0.14250625392978478
ltoes -5.576282749224491
228
root 0 0 0 -6.661895061663259 -3.372245672851811 -2.088867207440865
lowerback 12.948918726316542 0.973920702179408 1.897726900379613
upperback 2.064313247038301 1.655279398527464 1.2677066723155832
thorax -5.017516323947424 0.8580203133917181 -0.0655320881003787
lowerneck -17.48404824366784 -3.519495912418769 -1.995092916897523
upperneck 18.67397078142868 -4.426856659782252 0.6295589657026492
head 8.713489576465417 -2.181039635248282 -0.010474384062377995
rclavicle 3.5168974495226414E-15 9.079438767915933E-16
rhumerus -48.11792104612271 -18.089745381468063 -73.32756454657971
rradius 25.30686817441198
rwrist -2.3626274727553245
rhand -22.266827678039565 28.502786779692485
rfingers 7.125020000000062
rthumb 4.149206886555685 -1.803143155959404
lclavicle -3.378982084544761E-15 -6.57614071714554E-15
lhumerus -40.17210408561368 1.8002402672222964 84.87309430614363
lradius 26.80819031264542
lwrist 3.760213572757335
lhand -32.62333481451641 21.375613924347853
lfingers 7.1250200000000365
lthumb -5.76703738112225 52.23710135196632
rfemur -23.45397336630957 17.659000918035858 34.381007110983205
rtibia 29.09910100202451
rfoot -9.122485430845177 -12.520962871889004
rtoes -5.316487626441152
lfemur -4.240145944208848 -6.685710710484225 -21.03171587371361
ltibia 18.468699021122195
lfoot -10.399411016070413 0.0471324742539565
ltoes -5.7982831193711935
229
root 0 0 0 -6.22199509581133 -2.964064424249493 -1.486585913530627
lowerback 12.75519806791058 0.7746381242964088 1.2463166627687634
upperback 1.963707228815986 1.3090290742265678 1.2343940249570808
thorax -5.0276495839134725 0.6926105177579948 0.3235787587447607
lowerneck -17.486523242623438 -3.4465840826414205 -2.0350580353816143
upperneck 18.582241322659456 -4.293580494087155 0.5287320738629746
head 8.66852009944313 -2.128597989720389 -0.013764532038144761
rclavicle 3.5025098289188944E-15 9.253606596899084E-16
rhumerus -48.30494270155428 -18.143709860138024 -73.28102426593114
rradius 25.173873624866886
rwrist -2.2718526103166994
rhand -22.217955163212984 28.46675885601926
rfingers 7.125020000000061
rthumb 4.193773638067075 -1.8346714242786284
lclavicle -3.167604516331606E-15 -6.847151885854392E-15
lhumerus -39.79435341671175 1.4886037964567542 84.80612610730617
lradius 26.994206488526054
lwrist 4.191317383430071
lhand -32.584258704307935 21.61732855550526
lfingers 7.125020000000037
lthumb -5.729722655934161 52.47057034064437
rfemur -24.29626614046407 19.434736309892557 35.649343218067216
rtibia 27.75971797664411
rfoot -9.457503835375814 -12.398923606692684
rtoes -5.315424065418657
lfemur -3.70675454303759 -6.645643170732372 -21.222677437374553
ltibia 18.72444135533717
lfoot -10.329429213484664 -0.0820076084071566
ltoes -6.049550851124115
